<svg version="1.1" id="Layer_1" xmlns="http://www.w3.org/2000/svg" xmlns:xlink="http://www.w3.org/1999/xlink" x="0px" y="0px"
	 width="100%" viewBox="0 0 157 157" enable-background="new 0 0 157 157" xml:space="preserve">
<path fill="#5870C8" opacity="1.000000" stroke="none" 
	d="
M99.000000,158.000000 
	C95.638710,158.000000 92.277428,158.000000 88.547623,157.648346 
	C89.948441,156.562454 91.717758,155.828232 93.861923,154.938461 
	C92.629333,154.203110 91.810379,153.714523 91.377472,153.115646 
	C93.059792,152.708725 94.354507,152.405151 95.652534,152.116501 
	C134.804062,143.410828 160.136139,105.217957 152.791168,65.967285 
	C144.952560,24.078817 104.249069,-2.426724 62.286015,7.031615 
	C22.048492,16.101023 -3.488400,58.085285 7.611187,98.398895 
	C16.050093,129.048920 37.003674,146.924652 67.770393,153.417603 
	C66.681992,154.587250 65.834946,155.558304 64.614212,156.521851 
	C32.401253,149.215714 12.235174,129.651047 3.179744,98.408875 
	C2.463097,95.936371 1.727038,93.469490 1.000000,91.000000 
	C1.000000,82.979103 1.000000,74.958199 1.349536,66.327209 
	C2.090089,64.636948 2.593199,63.583271 2.855623,62.472721 
	C8.448362,38.804768 21.804827,20.915005 43.495228,9.957041 
	C51.469852,5.928271 60.468464,3.926410 69.000000,1.000000 
	C75.687645,1.000000 82.375290,1.000000 89.744186,1.326824 
	C124.709541,8.015750 146.702393,27.812946 155.997772,61.551830 
	C156.339188,62.791035 157.318146,63.854591 158.000000,65.000000 
	C158.000000,73.354233 158.000000,81.708466 157.669586,90.734940 
	C151.372375,121.672981 134.358124,142.685196 105.337410,153.770035 
	C103.023911,154.653702 101.103233,156.565826 99.000000,158.000000 
z"/>
<path fill="#F5F6F8" opacity="1.000000" stroke="none" 
	d="
M1.000000,91.468658 
	C1.727038,93.469490 2.463097,95.936371 3.179744,98.408875 
	C12.235174,129.651047 32.401253,149.215714 64.956528,156.674927 
	C66.412163,156.955551 67.151794,157.075592 67.905258,157.398529 
	C67.919090,157.601410 68.000000,158.000000 68.000000,158.000000 
	C45.739822,158.000000 23.479643,158.000000 1.000000,158.000000 
	C1.000000,135.979599 1.000000,113.958458 1.000000,91.468658 
z"/>
<path fill="#F5F6F8" opacity="1.000000" stroke="none" 
	d="
M68.531342,1.000000 
	C60.468464,3.926410 51.469852,5.928271 43.495228,9.957041 
	C21.804827,20.915005 8.448362,38.804768 2.855623,62.472721 
	C2.593199,63.583271 2.090089,64.636948 1.349536,65.858551 
	C1.000000,44.404842 1.000000,22.809689 1.000000,1.000000 
	C23.353771,1.000000 45.708225,1.000000 68.531342,1.000000 
z"/>
<path fill="#F5F6F8" opacity="1.000000" stroke="none" 
	d="
M158.000000,64.531342 
	C157.318146,63.854591 156.339188,62.791035 155.997772,61.551830 
	C146.702393,27.812946 124.709541,8.015750 90.212723,1.326824 
	C112.591286,1.000000 135.182571,1.000000 158.000000,1.000000 
	C158.000000,22.020353 158.000000,43.041519 158.000000,64.531342 
z"/>
<path fill="#F5F6F8" opacity="1.000000" stroke="none" 
	d="
M99.468658,158.000000 
	C101.103233,156.565826 103.023911,154.653702 105.337410,153.770035 
	C134.358124,142.685196 151.372375,121.672981 157.669586,91.203583 
	C158.000000,113.255508 158.000000,135.511017 158.000000,158.000000 
	C138.646393,158.000000 119.291855,158.000000 99.468658,158.000000 
z"/>
<path fill="#556ED1" opacity="1.000000" stroke="none" 
	d="
M67.891418,157.195648 
	C67.151794,157.075592 66.412163,156.955551 65.330215,156.682419 
	C65.834946,155.558304 66.681992,154.587250 68.172607,153.386520 
	C73.180992,153.752869 77.536697,154.709732 81.913803,154.820435 
	C84.924309,154.896561 87.964500,153.798950 90.991425,153.225952 
	C91.810379,153.714523 92.629333,154.203110 93.861923,154.938461 
	C91.717758,155.828232 89.948441,156.562454 88.089554,157.648346 
	C82.311958,158.000000 76.623917,158.000000 70.421875,157.709000 
	C69.235725,157.343887 68.563568,157.269760 67.891418,157.195648 
z"/>
<path fill="#5870C8" opacity="1.000000" stroke="none" 
	d="
M67.905258,157.398529 
	C68.563568,157.269760 69.235725,157.343887 69.953934,157.709000 
	C69.555557,158.000000 69.111107,158.000000 68.333328,158.000000 
	C68.000000,158.000000 67.919090,157.601410 67.905258,157.398529 
z"/>
<path fill="#FCFDFC" opacity="1.000000" stroke="none" 
	d="
M91.377480,153.115631 
	C87.964500,153.798950 84.924309,154.896561 81.913803,154.820435 
	C77.536697,154.709732 73.180992,153.752869 68.413956,153.187897 
	C37.003674,146.924652 16.050093,129.048920 7.611187,98.398895 
	C-3.488400,58.085285 22.048492,16.101023 62.286015,7.031615 
	C104.249069,-2.426724 144.952560,24.078817 152.791168,65.967285 
	C160.136139,105.217957 134.804062,143.410828 95.652534,152.116501 
	C94.354507,152.405151 93.059792,152.708725 91.377480,153.115631 
M114.381271,43.805088 
	C110.939392,44.355129 107.234253,44.274597 104.107704,45.579922 
	C96.415245,48.791492 92.414742,47.833298 88.326302,40.663441 
	C86.365227,37.224331 83.706047,35.035587 79.583557,35.039970 
	C75.270020,35.044559 72.524651,37.296474 70.533936,40.980103 
	C66.963547,47.586773 62.331581,48.986629 55.535519,45.738724 
	C54.183281,45.092472 52.830143,43.855206 51.497417,43.882088 
	C48.548733,43.941570 44.695099,43.663563 42.930161,45.336918 
	C41.171429,47.004391 40.473373,51.150047 41.130459,53.748932 
	C43.034157,61.278347 41.394222,64.616844 33.575325,66.074203 
	C29.772911,66.782921 27.043840,68.488632 26.349363,72.537796 
	C25.678354,76.450134 27.834324,78.708672 30.923748,80.576057 
	C35.336899,83.243561 36.617252,89.115341 33.279655,92.911560 
	C30.518236,96.052414 29.426619,99.082283 31.557722,102.814240 
	C33.698483,106.563126 37.304596,106.258553 40.843994,105.895287 
	C42.160946,105.760124 43.444355,105.283737 44.761269,105.165146 
	C49.437855,104.744011 53.269039,107.696205 54.082150,112.287872 
	C54.371868,113.923912 54.471535,115.600441 54.853901,117.211998 
	C56.173698,122.774597 59.850956,125.151314 65.098511,123.357475 
	C67.330055,122.594635 69.396919,120.925964 71.148232,119.258858 
	C77.326332,113.377815 81.860573,113.334900 87.904617,119.299019 
	C89.284958,120.661118 90.667587,122.306778 92.381218,122.994362 
	C98.829391,125.581635 104.165825,121.557564 104.825836,113.880836 
	C105.347778,107.810051 109.813286,104.354210 115.732780,105.416435 
	C117.202751,105.680214 118.681183,105.913803 120.164757,106.081398 
	C123.699448,106.480690 126.968361,105.265488 127.741844,101.876266 
	C128.309586,99.388527 127.697998,95.887772 126.229500,93.820595 
	C122.055214,87.944542 122.482750,85.243378 128.112045,80.622528 
	C130.344406,78.790085 132.311340,75.334351 132.432144,72.532875 
	C132.615311,68.284599 128.915909,66.688187 124.941917,66.013588 
	C117.973946,64.830750 115.416893,60.818512 117.807747,54.290760 
	C119.377846,50.003891 118.418579,46.884232 114.381271,43.805088 
M58.449268,134.493835 
	C58.837601,132.831070 59.225929,131.168304 59.646954,129.365555 
	C56.181145,130.610413 53.748100,131.484329 51.315056,132.358231 
	C51.350346,132.881149 51.385635,133.404083 51.420925,133.927017 
	C53.548069,134.233780 55.675213,134.540543 58.449268,134.493835 
M99.359627,133.336090 
	C96.549759,129.927338 92.577774,129.921692 89.980019,134.688873 
	C93.509338,134.379044 96.204506,134.142426 99.359627,133.336090 
z"/>
<path fill="#FCB483" opacity="1.000000" stroke="none" 
	d="
M114.723465,43.988194 
	C118.418579,46.884232 119.377846,50.003891 117.807747,54.290760 
	C115.416893,60.818512 117.973946,64.830750 124.941917,66.013588 
	C128.915909,66.688187 132.615311,68.284599 132.432144,72.532875 
	C132.311340,75.334351 130.344406,78.790085 128.112045,80.622528 
	C122.482750,85.243378 122.055214,87.944542 126.229500,93.820595 
	C127.697998,95.887772 128.309586,99.388527 127.741844,101.876266 
	C126.968361,105.265488 123.699448,106.480690 120.164757,106.081398 
	C118.681183,105.913803 117.202751,105.680214 115.732780,105.416435 
	C109.813286,104.354210 105.347778,107.810051 104.825836,113.880836 
	C104.165825,121.557564 98.829391,125.581635 92.381218,122.994362 
	C90.667587,122.306778 89.284958,120.661118 87.904617,119.299019 
	C81.860573,113.334900 77.326332,113.377815 71.148232,119.258858 
	C69.396919,120.925964 67.330055,122.594635 65.098511,123.357475 
	C59.850956,125.151314 56.173698,122.774597 54.853901,117.211998 
	C54.471535,115.600441 54.371868,113.923912 54.082150,112.287872 
	C53.269039,107.696205 49.437855,104.744011 44.761269,105.165146 
	C43.444355,105.283737 42.160946,105.760124 40.843994,105.895287 
	C37.304596,106.258553 33.698483,106.563126 31.557722,102.814240 
	C29.426619,99.082283 30.518236,96.052414 33.279655,92.911560 
	C36.617252,89.115341 35.336899,83.243561 30.923748,80.576057 
	C27.834324,78.708672 25.678354,76.450134 26.349363,72.537796 
	C27.043840,68.488632 29.772911,66.782921 33.575325,66.074203 
	C41.394222,64.616844 43.034157,61.278347 41.130459,53.748932 
	C40.473373,51.150047 41.171429,47.004391 42.930161,45.336918 
	C44.695099,43.663563 48.548733,43.941570 51.497417,43.882088 
	C52.830143,43.855206 54.183281,45.092472 55.535519,45.738724 
	C62.331581,48.986629 66.963547,47.586773 70.533936,40.980103 
	C72.524651,37.296474 75.270020,35.044559 79.583557,35.039970 
	C83.706047,35.035587 86.365227,37.224331 88.326302,40.663441 
	C92.414742,47.833298 96.415245,48.791492 104.107704,45.579922 
	C107.234253,44.274597 110.939392,44.355129 114.723465,43.988194 
M84.960892,83.786278 
	C80.634300,78.636642 74.666489,78.767769 73.199913,84.439240 
	C72.506256,87.121696 73.593819,90.936020 75.236832,93.284187 
	C76.133926,94.566307 80.340599,94.790817 82.234749,93.846878 
	C85.823418,92.058456 86.913437,88.505791 84.960892,83.786278 
M93.405533,69.952675 
	C91.411247,68.326057 89.308609,65.247437 87.446091,65.386436 
	C83.970955,65.645782 82.474358,68.906693 82.451340,72.331848 
	C83.110138,72.942970 83.768929,73.554100 84.427727,74.165230 
	C85.449219,71.930275 86.470718,69.695320 87.803581,66.779114 
	C89.631088,69.677414 90.642242,71.281029 92.092041,73.580299 
	C92.803246,72.274254 93.258026,71.439095 93.405533,69.952675 
M69.074303,65.120697 
	C64.130280,65.686073 62.294365,67.796280 62.611393,72.549179 
	C63.179127,73.115990 63.746857,73.682793 64.314590,74.249603 
	C65.147316,71.717827 65.980034,69.186058 66.812759,66.654289 
	C67.406319,67.198036 67.999886,67.741783 68.593452,68.285538 
	C69.488983,69.826340 70.384514,71.367149 71.301285,72.944489 
	C74.139778,70.453636 73.896606,69.409256 69.074303,65.120697 
z"/>
<path fill="#191919" opacity="1.000000" stroke="none" 
	d="
M58.125813,134.670563 
	C55.675213,134.540543 53.548069,134.233780 51.420925,133.927017 
	C51.385635,133.404083 51.350346,132.881149 51.315056,132.358231 
	C53.748100,131.484329 56.181145,130.610413 59.646954,129.365555 
	C59.225929,131.168304 58.837601,132.831070 58.125813,134.670563 
z"/>
<path fill="#1B1B1B" opacity="1.000000" stroke="none" 
	d="
M99.129654,133.620956 
	C96.204506,134.142426 93.509338,134.379044 89.980019,134.688873 
	C92.577774,129.921692 96.549759,129.927338 99.129654,133.620956 
z"/>
<path fill="#100705" opacity="1.000000" stroke="none" 
	d="
M85.092468,84.156845 
	C86.913437,88.505791 85.823418,92.058456 82.234749,93.846878 
	C80.340599,94.790817 76.133926,94.566307 75.236832,93.284187 
	C73.593819,90.936020 72.506256,87.121696 73.199913,84.439240 
	C74.666489,78.767769 80.634300,78.636642 85.092468,84.156845 
z"/>
<path fill="#261009" opacity="1.000000" stroke="none" 
	d="
M93.559174,70.278305 
	C93.258026,71.439095 92.803246,72.274254 92.092041,73.580299 
	C90.642242,71.281029 89.631088,69.677414 87.803581,66.779114 
	C86.470718,69.695320 85.449219,71.930275 84.427727,74.165230 
	C83.768929,73.554100 83.110138,72.942970 82.451340,72.331848 
	C82.474358,68.906693 83.970955,65.645782 87.446091,65.386436 
	C89.308609,65.247437 91.411247,68.326057 93.559174,70.278305 
z"/>
<path fill="#29110A" opacity="1.000000" stroke="none" 
	d="
M69.417175,65.274673 
	C73.896606,69.409256 74.139778,70.453636 71.301285,72.944489 
	C70.384514,71.367149 69.488983,69.826340 68.593452,68.285538 
	C67.999886,67.741783 67.406319,67.198036 66.812759,66.654289 
	C65.980034,69.186058 65.147316,71.717827 64.314590,74.249603 
	C63.746857,73.682793 63.179127,73.115990 62.611393,72.549179 
	C62.294365,67.796280 64.130280,65.686073 69.417175,65.274673 
z"/>
</svg>